<svg id="Layer_1" xmlns="http://www.w3.org/2000/svg" viewBox="0 0 1484.71 1764.7">
    <defs>
        <style>
            .cls-1 {
                fill: #91acc5;
                stroke-width: 0px;
            }
        </style>
    </defs>
    <path class="cls-1"
        d="M1333,1678.3c-52.5,0-103.7-27.2-131.9-76l-217.3-376.4h-432c-83.8,0-151.9-68.2-151.9-151.9V480.1c0-83.8,68.2-151.9,151.9-151.9s152,68.1,152,151.9v64.5h325c83.8,0,151.9,68.2,151.9,151.9s-68.2,151.9-151.9,151.9h-325v73.7h367.8c52.4,0,100.5,26.7,128.6,71.3,1.2,1.8,2.8,4.3,4.3,6.9l259.9,450.1c20.2,35,25.6,76,15,115.2-10.5,39.3-35.6,72-70.6,92.3-23.9,13.8-49.9,20.4-75.8,20.4ZM551.9,406.8c-40.4,0-73.2,32.8-73.2,73.2v593.9c0,40.4,32.8,73.2,73.2,73.2h454.8c14.1,0,27.1,7.5,34.1,19.7l228.7,396.1c20.2,35,65,47,100,26.8,16.8-9.7,28.9-25.5,34-44.5,5.1-19,2.5-38.7-7.2-55.5l-259.9-450c-.7-1.3-1.6-2.5-2.4-3.8-14-22.3-37.2-35.2-62.4-35.2h-407.1c-21.7,0-39.4-17.6-39.4-39.4v-152.4c0-21.7,17.6-39.4,39.4-39.4h364.3c40.4,0,73.2-32.8,73.2-73.2s-32.8-73.2-73.2-73.2h-364.3c-21.7,0-39.4-17.6-39.4-39.4v-103.7c0-40.3-32.9-73.2-73.2-73.2Z" />
    <path class="cls-1"
        d="M551.9,406.8c-112.2,0-203.4-91.2-203.4-203.4S439.7,0,551.9,0s203.4,91.2,203.4,203.4-91.2,203.4-203.4,203.4ZM551.9,78.7c-68.7,0-124.7,56-124.7,124.7s56,124.7,124.7,124.7,124.7-56,124.7-124.7-56-124.7-124.7-124.7Z" />
    <path class="cls-1"
        d="M578.2,1764.7C259.4,1764.7,0,1505.3,0,1186.5c0-261.5,176.5-491.3,429.2-558.7,21-5.6,42.6,6.8,48.2,27.9,5.6,21-6.8,42.6-27.9,48.2-218.3,58.3-370.8,256.7-370.8,482.6,0,275.4,224,499.5,499.5,499.5,219.6,0,416.6-147.1,478.9-357.7,6.1-20.9,28.1-32.7,48.9-26.6,20.9,6.1,32.7,28.1,26.6,48.9-35.7,120.5-107.8,224-208.4,299.1-100.7,75.3-220.3,115-346,115Z" />
</svg>