<?xml version="1.0" encoding="UTF-8"?><svg id="Layer_2" xmlns="http://www.w3.org/2000/svg" viewBox="0 0 637.46 621.52"><defs><style>.cls-1{fill:#0079f3;stroke-width:0px;}</style></defs><g id="Layer_1-2"><g id="Layer_2-2"><g id="Surfaces"><g id="Utility_Surface"><g id="Outline_no_shadow"><path class="cls-1" d="M199.38,268.62h-29.04v-59.5c3.19.12,6.38.06,9.56-.18,3.01-.18,6.38-.18,10.09-.18h12.4c9.05-.18,18.08,1.07,26.74,3.72,6.32,1.93,11.93,5.69,16.11,10.8,3.88,5.47,5.81,12.08,5.49,18.77.18,5.92-1.03,11.81-3.54,17.18-2.31,4.39-5.43,8.3-9.21,11.51-5.25-1.06-10.58-1.59-15.94-1.59-7.44-.35-14.87-.53-22.67-.53Z"/><path class="cls-1" d="M254.98,334.49c3.89,6,5.87,13.04,5.67,20.19.15,7.28-2.3,14.37-6.91,20.01-5.45,5.94-12.53,10.13-20.36,12.04-10.11,2.65-20.54,3.9-30.99,3.72-6.73,0-12.57,0-17.53-.18-4.78-.18-9.74-.35-14.52-.53v-70.65h36.83c5.21.03,10.41.33,15.58.89,3.9.53,7.79,1.24,11.69,2.12,8.15,1.44,15.47,5.86,20.54,12.4Z"/><path class="cls-1" d="M485.53,293.94c-4.77-15.01-18.96-25.01-34.71-24.44-14.66-.84-28.45,6.99-35.24,20.01-2.86,5.55-4.78,11.53-5.67,17.71h55.95c6.91,0,11.86-.18,15.23-.35,2.08,0,4.15-.19,6.2-.53v-2.66c-.14-3.31-.74-6.59-1.77-9.74ZM485.53,293.94c-4.77-15.01-18.96-25.01-34.71-24.44-14.66-.84-28.45,6.99-35.24,20.01-2.86,5.55-4.78,11.53-5.67,17.71h55.95c6.91,0,11.86-.18,15.23-.35,2.08,0,4.15-.19,6.2-.53v-2.66c-.14-3.31-.74-6.59-1.77-9.74ZM524.49,0H112.97C50.66-.08.08,50.37,0,112.68c0,.1,0,.19,0,.29v395.58c-.08,62.31,50.37,112.89,112.68,112.97.1,0,.19,0,.29,0h411.52c62.31.08,112.89-50.37,112.97-112.68,0-.1,0-.19,0-.29V112.97C637.54,50.66,587.09.08,524.78,0c-.1,0-.19,0-.29,0ZM379.47,153.34c0-2.12,1.24-3.01,3.36-3.01h128.02c1.95,0,2.83,1.06,2.83,3.36v34.71c.29,1.56-.75,3.05-2.31,3.34-.06.01-.12.02-.17.03-.27.18-.62.18-.89,0h-127.85c-1.95,0-3.01-1.06-3.01-3.36v-35.06ZM307.75,398.59c-10.46,13.88-24.64,24.51-40.9,30.63-20.4,7.74-42.11,11.47-63.92,10.98h-28.51c-9.03,0-17.18-.18-24.79-.35-7.61,0-14.17-.18-19.66-.35-5.67-.18-10.45-.18-14.34-.18-1.9-.23-3.25-1.96-3.01-3.86,0-.01,0-.02,0-.03V163.79c0-2.48.89-3.9,2.66-4.25,4.78-.18,12.22-.35,22.13-.53,9.92-.18,20.89-.35,32.58-.53,11.69,0,22.31-.18,32.05-.18,18.9-.64,37.77,2,55.78,7.79,11.94,3.95,22.84,10.55,31.87,19.3,6.83,6.92,11.92,15.35,14.87,24.61,2.44,7.62,3.75,15.55,3.9,23.55.31,15.65-4.82,30.92-14.52,43.21-3.17,4.2-7.07,7.8-11.51,10.62,6.03,3.32,11.67,7.3,16.82,11.86,6.63,5.96,12.1,13.11,16.11,21.07,4.78,10.3,7.09,21.58,6.73,32.94.31,16.27-4.73,32.2-14.34,45.33ZM542.55,332.37c-.35,5.14-1.24,10.45-1.42,12.75-.3,1.92-1.95,3.35-3.9,3.36-1.77,0-127.32.18-127.32.18.96,7.99,3.68,15.67,7.97,22.49,4.85,7.06,11.6,12.58,19.48,15.94,10.77,4.44,22.36,6.49,34,6.02,9.26.04,18.5-.73,27.62-2.3,8.59-1.54,16.98-4.1,24.97-7.61,1.42-1.06,2.12-.35,2.12,2.12v40.73c.17,1.09-.01,2.21-.53,3.19-.56.73-1.21,1.39-1.95,1.95-8.85,4.2-18.19,7.29-27.8,9.21-12.44,2.31-25.07,3.37-37.72,3.19-17.41.51-34.74-2.69-50.82-9.38-12.94-5.7-24.34-14.38-33.29-25.32-8.46-10.25-14.72-22.12-18.42-34.88-7.9-26.39-7.53-54.57,1.06-80.75,4.22-13.26,10.95-25.59,19.83-36.3,8.76-10.62,19.69-19.26,32.05-25.32,13.99-6.4,29.24-9.55,44.62-9.21,14.18-.32,28.26,2.46,41.26,8.15,10.99,4.99,20.59,12.59,27.98,22.13,7,9.02,12.34,19.21,15.76,30.1,3.38,10.47,5.12,21.4,5.14,32.4.06,5.73-.18,11.47-.71,17.18ZM450.83,269.5c-14.66-.84-28.45,6.99-35.24,20.01-2.86,5.55-4.78,11.53-5.67,17.71h55.95c6.91,0,11.86-.18,15.23-.35,2.08,0,4.15-.19,6.2-.53v-2.66c-.14-3.31-.74-6.59-1.77-9.74-4.77-15.01-18.96-25.01-34.71-24.44Z"/></g></g></g></g></g></svg>