<svg id="Layer_2" xmlns="http://www.w3.org/2000/svg" viewBox="0 0 398.05 398.05">
    <defs>
        <style>
        .svg-feature {
            fill: none;
            stroke-linecap: round;
            stroke-linejoin: round;
            stroke-width: 0.5rem;
            stroke: #91acc5;
        }
        </style>
    </defs>
    <g id="Layer_1-2">
        <path class="svg-feature" d="M251.7,392.64c16.63-4.51,32.41-11.09,47.03-19.47,2.24-1.28,2.99-4.1,1.9-6.44-10.76-23.22-9.92-47.28,4.45-61.65,14.37-14.37,38.43-15.21,61.65-4.45,2.34,1.08,5.16,.33,6.44-1.9,8.38-14.62,14.96-30.39,19.47-47.03.68-2.5-.78-5.05-3.21-5.94-24.01-8.81-40.42-26.42-40.42-46.73s16.4-37.92,40.42-46.73c2.43-.89,3.89-3.44,3.21-5.94-4.51-16.63-11.09-32.41-19.47-47.03-1.28-2.24-4.1-2.99-6.44-1.9-23.22,10.76-47.28,9.92-61.65-4.45-14.37-14.37-15.21-38.43-4.45-61.65,1.08-2.34,.33-5.16-1.9-6.44-14.62-8.38-30.4-14.96-47.03-19.47-2.5-.68-5.05.78-5.94,3.21-8.81,24.01-26.42,40.42-46.73,40.42s-37.92-16.4-46.73-40.42c-.89-2.43-3.44-3.89-5.94-3.21-16.63,4.51-32.41,11.09-47.03,19.47-2.24,1.28-2.99,4.1-1.9,6.44,10.76,23.22,9.92,47.28-4.45,61.65-14.37,14.37-38.43,15.21-61.65,4.45-2.34-1.08-5.16-.33-6.44,1.9-8.38,14.62-14.96,30.39-19.47,47.03-.68,2.5.78,5.05,3.21,5.94,24.01,8.81,40.42,26.42,40.42,46.73s-16.4,37.92-40.42,46.73c-2.43.89-3.89,3.44-3.21,5.94,4.51,16.63,11.09,32.41,19.47,47.03,1.28,2.24,4.1,2.99,6.44,1.9,23.22-10.76,47.28-9.92,61.65,4.45,14.37,14.37,15.21,38.43,4.45,61.65-1.08,2.34-.33,5.16,1.9,6.44,14.62,8.38,30.39,14.96,47.03,19.47"/>
        <path class="svg-feature" d="M226.65,392.81v-143c27.99-11.03,47.82-38.25,47.82-70.16s-18.51-57.29-45-69v84.96l-30.45,15.02-30.45-15.02v-84.96c-26.49,11.71-45,38.18-45,69s19.84,59.13,47.82,70.16v143"/>
    </g>
</svg>

