<?xml version="1.0" encoding="UTF-8"?><svg id="Layer_2" xmlns="http://www.w3.org/2000/svg" viewBox="0 0 644.65 628.75"><defs><style>.cls-1{fill:#0079f3;stroke-width:0px;}</style></defs><g id="Layer_1-2"><path class="cls-1" d="M322.33,0c178.09,0,322.33,144.24,322.33,322.33-.04,138.48-88.38,261.51-219.58,305.81-16.12,3.22-22.16-6.85-22.16-15.31,0-10.88.4-45.53.4-88.64,0-30.22-10.07-49.56-21.76-59.63,71.72-8.06,147.06-35.46,147.06-159.15,0-35.46-12.49-64.06-33.04-86.63,3.22-8.06,14.5-41.1-3.22-85.42,0,0-26.99-8.86-88.64,33.04-25.79-7.25-53.18-10.88-80.58-10.88s-54.8,3.63-80.58,10.88c-61.64-41.5-88.64-33.04-88.64-33.04-17.73,44.32-6.45,77.36-3.22,85.42-20.55,22.56-33.04,51.57-33.04,86.63,0,123.29,74.94,151.09,146.66,159.15-9.27,8.06-17.73,22.16-20.55,43.11-18.53,8.46-64.87,22.16-93.88-26.59-6.04-9.67-24.17-33.44-49.56-33.04-26.99.4-10.88,15.31.4,21.35,13.7,7.66,29.41,36.26,33.04,45.53,6.45,18.13,27.4,52.78,108.38,37.87,0,26.99.4,52.38.4,60.03,0,8.46-6.04,18.13-22.16,15.31C88.73,584.31-.07,461.09,0,322.33,0,144.24,144.24,0,322.33,0Z"/></g></svg>