<?xml version="1.0" encoding="UTF-8"?><svg id="Layer_2" xmlns="http://www.w3.org/2000/svg" viewBox="0 0 635.91 635.91"><defs><style>.cls-1{fill:#0079f3;stroke-width:0px;}</style></defs><g id="Layer_1-2"><path class="cls-1" d="M317.96,57.29c84.9,0,94.95.32,128.48,1.85,31,1.41,47.83,6.6,59.04,10.95,14.84,5.77,25.43,12.65,36.55,23.78,11.13,11.13,18.02,21.72,23.78,36.56,4.36,11.21,9.53,28.04,10.95,59.04,1.52,33.53,1.85,43.58,1.85,128.48s-.33,94.96-1.85,128.48c-1.42,31.01-6.6,47.84-10.95,59.04-5.77,14.85-12.65,25.44-23.78,36.56-11.12,11.12-21.72,18.01-36.55,23.78-11.21,4.36-28.05,9.54-59.04,10.95-33.53,1.52-43.58,1.85-128.48,1.85s-94.96-.32-128.48-1.85c-31-1.41-47.84-6.59-59.04-10.95-14.85-5.77-25.44-12.66-36.57-23.78-11.12-11.13-18.01-21.72-23.78-36.56-4.35-11.2-9.53-28.03-10.95-59.04-1.53-33.52-1.85-43.58-1.85-128.48s.32-94.95,1.85-128.48c1.42-31,6.6-47.83,10.95-59.04,5.77-14.84,12.66-25.43,23.78-36.56,11.13-11.13,21.72-18.01,36.57-23.78,11.2-4.36,28.04-9.54,59.04-10.95,33.53-1.53,43.59-1.85,128.48-1.85M317.96,0c-86.36,0-97.18.37-131.1,1.91-33.84,1.55-56.95,6.92-77.18,14.78-20.91,8.13-38.64,19-56.32,36.68-17.68,17.68-28.55,35.41-36.67,56.32-7.86,20.23-13.24,43.34-14.78,77.18-1.55,33.92-1.92,44.74-1.92,131.09s.37,97.18,1.92,131.1c1.54,33.84,6.92,56.95,14.78,77.18,8.12,20.91,18.99,38.64,36.67,56.32,17.68,17.68,35.41,28.55,56.32,36.68,20.23,7.85,43.33,13.23,77.18,14.78,33.92,1.55,44.74,1.91,131.1,1.91s97.18-.36,131.09-1.91c33.84-1.54,56.95-6.92,77.18-14.78,20.91-8.13,38.64-19,56.32-36.68,17.68-17.68,28.55-35.41,36.68-56.32,7.85-20.23,13.23-43.34,14.78-77.18,1.54-33.92,1.91-44.74,1.91-131.1s-.36-97.18-1.91-131.09c-1.55-33.84-6.93-56.95-14.78-77.18-8.13-20.91-19-38.64-36.68-56.32-17.68-17.68-35.41-28.55-56.32-36.68-20.23-7.86-43.34-13.23-77.18-14.78-33.92-1.54-44.74-1.91-131.09-1.91"/><path class="cls-1" d="M317.96,154.68c-90.17,0-163.28,73.1-163.28,163.27s73.11,163.28,163.28,163.28,163.27-73.1,163.27-163.28-73.1-163.27-163.27-163.27M317.96,423.94c-58.54,0-105.99-47.46-105.99-105.99s47.45-105.98,105.99-105.98,105.98,47.45,105.98,105.98-47.45,105.99-105.98,105.99"/><path class="cls-1" d="M525.84,148.23c0,21.07-17.08,38.16-38.16,38.16s-38.16-17.09-38.16-38.16,17.08-38.15,38.16-38.15,38.16,17.08,38.16,38.15"/></g></svg>