<svg id="Layer_2" xmlns="http://www.w3.org/2000/svg"
    viewBox="0 0 1116.82 1328.21">
    <defs>
        <style>
            .cls-1 {
                fill: #91acc5;
                stroke-width: 0px;
            }
        </style>
    </defs>
    <path class="cls-1"
        d="M814.35,777.39c14.72-29.99,9.7-67.3-15.21-92.21-14.24-14.24-32.53-21.93-51.19-23.22,11.55-28.93,5.65-63.27-17.74-86.66-12.13-12.13-27.21-19.5-42.95-22.22l155.95-155.95c33.71-33.71,35.6-87.07,4.31-121.47-16.21-17.82-38.36-27.94-62.37-28.51-24.02-.55-46.61,8.48-63.6,25.46l-408.1,408.09,7.71-226.57c1.99-58.46-42-109.18-100.16-115.48l-1.5-.16c-32.91-3.55-62.71,20.13-66.46,52.81l-18.4,160.51c-3.19,27.85-12.95,54.99-28.21,78.5-17.41,26.82-28.83,57.75-33.03,89.44l-30.8,232.44-38.51,45.13c-5.79,6.78-5.39,16.88.92,23.18l302.7,302.7c3.23,3.23,7.59,5.01,12.09,5.01.77,0,1.55-.05,2.33-.16,5.3-.73,9.95-3.9,12.57-8.56l8.04-14.31c18.71-18.33,40.33-33.02,64.28-43.69l152.03-67.71c28.5-12.69,54.13-30.31,76.19-52.37l226.23-226.23c31.09-31.08,32.8-80.29,3.89-112.01-13.47-14.79-31.4-23.75-51-25.79ZM837.28,891.02l-226.23,226.23c-19.09,19.08-41.26,34.33-65.92,45.31l-152.03,67.71c-28.5,12.69-54.13,30.31-76.19,52.37-.24.24-.47.49-.7.74L40.35,1007.5l31.54-36.96c2.14-2.51,3.51-5.58,3.94-8.85l31.46-237.45c3.54-26.69,13.15-52.73,27.82-75.32,18.13-27.92,29.71-60.15,33.5-93.22l18.4-160.51c1.64-14.31,14.29-24.29,28.82-22.71l1.5.16c40.45,4.38,71.05,39.66,69.67,80.33l-7.77,228.22c-.47,13.86,7.44,26.38,20.16,31.9,12.72,5.52,27.27,2.76,37.07-7.05l409.26-409.26c10.31-10.31,24.02-15.83,38.62-15.46,14.58.34,28.03,6.5,37.89,17.34,18.68,20.53,17.24,53.86-3.19,74.29l-283.04,283.04c-6.68,6.68-6.68,17.5,0,24.17,3.34,3.34,7.71,5.01,12.09,5.01,2.19,0,4.37-.42,6.43-1.25,1.03-.42,2.03-.94,2.97-1.57.95-.63,1.85-1.36,2.68-2.19l35.3-35.3,45.36-45.36c17.98-17.98,47.23-18,65.2-.03,17.99,17.99,17.99,47.25,0,65.23l-104.09,104.09c-6.68,6.67-6.68,17.5,0,24.17,3.34,3.34,7.71,5.01,12.09,5.01s8.75-1.67,12.09-5.01l83.62-83.62c17.99-17.98,47.24-17.98,65.22,0,17.99,17.99,17.99,47.24,0,65.23l-25.83,25.83s0,0,0,0l-81.22,81.21c-6.68,6.68-6.68,17.5,0,24.18,3.34,3.34,7.71,5.01,12.09,5.01s8.75-1.67,12.09-5.01l53.52-53.52,27.69-27.69c9-9,20.95-13.84,33.69-13.5,12.72.3,24.46,5.66,33.07,15.11,16.3,17.89,15.05,46.97-2.79,64.81Z" />
    <path class="cls-1"
        d="M843.75,490.46c18.49-8.25,35.13-19.7,49.48-34.04,64.18-64.18,64.17-168.61-.03-232.8-64.18-64.18-168.6-64.18-232.78,0-14.34,14.34-25.8,30.99-34.04,49.48-3.85,8.62.03,18.73,8.65,22.58,8.62,3.84,18.73-.03,22.57-8.65,6.54-14.65,15.62-27.85,26.99-39.23,50.85-50.84,133.58-50.84,184.43,0,50.86,50.86,50.87,133.6.03,184.45-11.37,11.37-24.57,20.46-39.23,26.99-8.62,3.85-12.49,13.95-8.65,22.57,2.84,6.36,9.08,10.14,15.62,10.14,2.33,0,4.69-.48,6.95-1.49Z" />
    <path class="cls-1"
        d="M838.95,585.73c1.48,0,2.98-.19,4.48-.6,42.57-11.52,81.64-34.18,112.98-65.53,47.97-47.97,74.39-111.75,74.38-179.59,0-67.83-26.43-131.61-74.4-179.59-47.96-47.96-111.73-74.38-179.56-74.38h-.01c-67.83,0-131.61,26.42-179.57,74.38-31.38,31.38-54.03,70.44-65.5,112.97-2.46,9.11,2.94,18.5,12.05,20.96,9.12,2.46,18.5-2.94,20.96-12.05,9.92-36.76,29.51-70.54,56.67-97.7,41.51-41.51,96.7-64.37,155.4-64.37h.01c58.7,0,113.89,22.86,155.39,64.37,41.52,41.52,64.39,96.71,64.39,155.42,0,58.7-22.85,113.9-64.37,155.41-27.13,27.13-60.93,46.74-97.74,56.7-9.11,2.47-14.5,11.85-12.04,20.97,2.06,7.62,8.96,12.63,16.49,12.63Z" />
    <path class="cls-1"
        d="M1017.34,99.47c-132.63-132.63-348.43-132.63-481.07,0-47.53,47.53-79.64,107.34-92.86,172.96-1.86,9.26,4.13,18.27,13.38,20.13,9.25,1.86,18.27-4.13,20.13-13.38,11.88-59,40.76-112.78,83.52-155.53,119.3-119.3,313.42-119.3,432.72,0,119.3,119.3,119.3,313.42,0,432.72-42.76,42.76-96.54,71.63-155.54,83.51-9.25,1.87-15.25,10.88-13.38,20.13,1.63,8.12,8.77,13.72,16.74,13.72,1.12,0,2.25-.11,3.39-.34,65.62-13.21,125.43-45.32,172.96-92.86,132.63-132.63,132.63-348.44,0-481.07Z" />
</svg>