<?xml version="1.0" encoding="UTF-8"?><svg id="Layer_2" xmlns="http://www.w3.org/2000/svg" viewBox="0 0 621.52 621.52"><defs><style>.cls-1{fill:#0079f3;stroke-width:0px;}</style></defs><g id="Layer_1-2"><path class="cls-1" d="M574.91,0H46.61C20.87,0,0,20.87,0,46.61v528.3c0,25.74,20.87,46.61,46.61,46.61h528.3c25.74,0,46.61-20.87,46.61-46.61V46.61c0-25.74-20.87-46.61-46.61-46.61ZM186.46,528.3h-93.23V248.61h93.23v279.69ZM139.84,194.23c-30.02-.86-53.67-25.89-52.81-55.92.86-30.02,25.89-53.67,55.92-52.81,29.41.84,52.82,24.92,52.83,54.34-.51,30.43-25.51,54.73-55.94,54.38ZM528.3,528.3h-93.23v-147.3c0-44.13-18.65-59.98-42.89-59.98-29.8,1.98-52.35,27.75-50.36,57.55,0,.09.01.17.02.26-.15,1.45-.15,2.9,0,4.35v145.13h-93.23V248.61h90.12v40.4c18.49-28.12,50.27-44.6,83.91-43.51,48.17,0,104.42,26.73,104.42,113.74l1.24,169.05Z"/></g></svg>