<svg id="Layer_1" xmlns="http://www.w3.org/2000/svg" viewBox="0 0 1530 1080.27">
    <defs>
        <style>
            .cls-1 {
                fill: #91acc5;
                stroke-width: 0px;
            }
        </style>
    </defs>
    <path class="cls-1"
        d="M947.25,852.21H342.4c-11.6,0-21-9.4-21-21s9.4-21,21-21h604.85c11.6,0,21,9.4,21,21s-9.4,21-21,21Z" />
    <path class="cls-1"
        d="M128.39,487.13c-11.6,0-21-9.4-21-21V74.58C107.39,33.46,140.85,0,181.98,0h1060.26c41.13,0,74.59,33.46,74.59,74.58v238.96c0,11.6-9.4,21-21,21s-21-9.4-21-21V74.58c0-17.96-14.62-32.58-32.59-32.58H181.98c-17.97,0-32.59,14.61-32.59,32.58v391.55c0,11.6-9.4,21-21,21Z" />
    <path class="cls-1"
        d="M947.25,673.36H342.4c-11.6,0-21-9.4-21-21s9.4-21,21-21h604.85c11.6,0,21,9.4,21,21s-9.4,21-21,21Z" />
    <circle class="cls-1" cx="712.11" cy="741.78" r="25.89" />
    <path class="cls-1"
        d="M626.07,966.82c-11.6,0-21-9.4-21-21v-114.62c0-11.6,9.4-21,21-21s21,9.4,21,21v114.62c0,11.6-9.4,21-21,21Z" />
    <path class="cls-1"
        d="M798.15,966.82c-11.6,0-21-9.4-21-21v-114.62c0-11.6,9.4-21,21-21s21,9.4,21,21v114.62c0,11.6-9.4,21-21,21Z" />
    <path class="cls-1"
        d="M967.3,1080.26H409.85c-11.6,0-21-9.4-21-21v-13.41c0-63.28,51.48-114.76,114.76-114.76h417c11.1,0,22.07,1.58,32.61,4.71,11.12,3.3,17.46,14.98,14.16,26.1-3.3,11.12-14.98,17.46-26.1,14.16-6.66-1.98-13.62-2.98-20.67-2.98h-417c-37.55,0-68.55,28.6-72.36,65.16h536.05c11.6,0,21,9.4,21,21s-9.4,21-21,21Z" />
    <path class="cls-1"
        d="M326.46,1080.27H36.94c-20.37,0-36.94-16.57-36.94-36.94V482.08c0-20.37,16.57-36.94,36.94-36.94h289.51c20.37,0,36.94,16.57,36.94,36.94v561.24c0,20.37-16.57,36.94-36.94,36.94ZM42,1038.27h279.4V487.13H42v551.13Z" />
    <path class="cls-1"
        d="M342.4,573.63H21C9.4,573.63,0,564.23,0,552.63s9.4-21,21-21h321.4c11.6,0,21,9.4,21,21s-9.4,21-21,21Z" />
    <path class="cls-1"
        d="M342.4,993.77H21C9.4,993.77,0,984.37,0,972.77s9.4-21,21-21h321.4c11.6,0,21,9.4,21,21s-9.4,21-21,21Z" />
    <path class="cls-1"
        d="M1488.95,1080.27h-521.66c-22.63,0-41.05-18.41-41.05-41.05V333.59c0-22.63,18.41-41.05,41.05-41.05h521.66c22.63,0,41.05,18.41,41.05,41.05v705.63c0,22.63-18.41,41.05-41.05,41.05ZM968.25,1038.27h519.75V334.54h-519.75v703.73Z" />
    <path class="cls-1"
        d="M1439,969.13h-421.75c-11.6,0-21-9.4-21-21V383.54c0-11.6,9.4-21,21-21h421.75c11.6,0,21,9.4,21,21v564.59c0,11.6-9.4,21-21,21ZM1038.25,927.13h379.75V404.54h-379.75v522.59Z" />
    <circle class="cls-1" cx="1228.13" cy="1003.7" r="19.9" />
</svg>